<mxfile host="drawio-plugin" modified="2023-09-06T13:48:43.279Z" agent="5.0 (Windows NT 6.2; Win64; x64) AppleWebKit/537.36 (KHTML, like Gecko) Chrome/104.0.5112.102 Safari/537.36" etag="37kQaEV8qRr4n5sSOTW6" version="20.5.3" type="embed"><diagram name="Страница — 1" id="Gv3fW0n8NLwTeKYd3DuP"><mxGraphModel dx="495" dy="394" grid="1" gridSize="10" guides="1" tooltips="1" connect="1" arrows="1" fold="1" page="1" pageScale="1" pageWidth="827" pageHeight="1169" math="0" shadow="0"><root><mxCell id="0"/><mxCell id="1" parent="0"/><mxCell id="FSxCDPhHm5OPK9uI3pFA-13" value="" style="group" parent="1" vertex="1" connectable="0"><mxGeometry x="470" y="140" width="200" height="130" as="geometry"/></mxCell><mxCell id="FSxCDPhHm5OPK9uI3pFA-10" value="&lt;font color=&quot;#000000&quot;&gt;id PK bigint&lt;br&gt;&amp;nbsp; &amp;nbsp; &amp;nbsp; &amp;nbsp; &amp;nbsp; ping_ts timestamp&lt;br&gt;astrologer_id FK bigint&lt;br&gt;user_id FK bigint&lt;br&gt;user_type boolean&lt;/font&gt;" style="rounded=1;whiteSpace=wrap;html=1;align=center;fillColor=#fff2cc;strokeColor=#d6b656;" parent="FSxCDPhHm5OPK9uI3pFA-13" vertex="1"><mxGeometry width="200" height="130" as="geometry"/></mxCell><mxCell id="FSxCDPhHm5OPK9uI3pFA-11" value="&lt;font color=&quot;#000000&quot;&gt;Pings&lt;/font&gt;" style="text;html=1;strokeColor=#b85450;fillColor=#f8cecc;align=center;verticalAlign=middle;whiteSpace=wrap;rounded=0;" parent="FSxCDPhHm5OPK9uI3pFA-13" vertex="1"><mxGeometry x="72.22222222222223" width="61.11111111111111" height="23.636363636363637" as="geometry"/></mxCell><mxCell id="FSxCDPhHm5OPK9uI3pFA-16" value="" style="group" parent="1" vertex="1" connectable="0"><mxGeometry x="214" y="310" width="200" height="150" as="geometry"/></mxCell><mxCell id="FSxCDPhHm5OPK9uI3pFA-1" value="&lt;div style=&quot;&quot;&gt;&lt;span style=&quot;background-color: initial;&quot;&gt;&lt;font color=&quot;#000000&quot;&gt;id PK bigint&lt;/font&gt;&lt;/span&gt;&lt;/div&gt;&lt;div style=&quot;&quot;&gt;&lt;span style=&quot;background-color: initial;&quot;&gt;&lt;font color=&quot;#000000&quot;&gt;&lt;span style=&quot;&quot;&gt;&lt;span style=&quot;&quot;&gt;&amp;nbsp;&amp;nbsp;&amp;nbsp;&amp;nbsp;&lt;/span&gt;&lt;/span&gt;&amp;nbsp; &amp;nbsp;start_ts timestamp&lt;/font&gt;&lt;/span&gt;&lt;/div&gt;&lt;div style=&quot;&quot;&gt;&lt;font color=&quot;#000000&quot;&gt;astrologer_id FK bigint&lt;span style=&quot;background-color: initial;&quot;&gt;&lt;br&gt;&lt;/span&gt;&lt;/font&gt;&lt;/div&gt;&lt;div style=&quot;&quot;&gt;&lt;font color=&quot;#000000&quot;&gt;user_id FK bigint&lt;br&gt;&lt;/font&gt;&lt;/div&gt;&lt;div style=&quot;&quot;&gt;&lt;span style=&quot;background-color: initial;&quot;&gt;&lt;font color=&quot;#000000&quot;&gt;&amp;nbsp; &amp;nbsp; &amp;nbsp; &amp;nbsp;duration integer&lt;/font&gt;&lt;/span&gt;&lt;/div&gt;&lt;div style=&quot;&quot;&gt;&lt;span style=&quot;background-color: initial;&quot;&gt;&lt;font color=&quot;#000000&quot;&gt;income real&lt;/font&gt;&lt;/span&gt;&lt;/div&gt;" style="rounded=1;whiteSpace=wrap;html=1;align=center;fillColor=#fff2cc;strokeColor=#d6b656;" parent="FSxCDPhHm5OPK9uI3pFA-16" vertex="1"><mxGeometry width="200" height="150" as="geometry"/></mxCell><mxCell id="FSxCDPhHm5OPK9uI3pFA-2" value="&lt;font color=&quot;#000000&quot;&gt;Chats&lt;/font&gt;" style="text;html=1;strokeColor=#b85450;fillColor=#f8cecc;align=center;verticalAlign=middle;whiteSpace=wrap;rounded=0;" parent="FSxCDPhHm5OPK9uI3pFA-16" vertex="1"><mxGeometry x="52.63157894736842" width="73.68421052631578" height="21.428571428571427" as="geometry"/></mxCell><mxCell id="FSxCDPhHm5OPK9uI3pFA-17" value="" style="group" parent="1" vertex="1" connectable="0"><mxGeometry x="204" y="140" width="210" height="120" as="geometry"/></mxCell><mxCell id="FSxCDPhHm5OPK9uI3pFA-6" value="&lt;div style=&quot;text-align: justify;&quot;&gt;&lt;span style=&quot;background-color: initial;&quot;&gt;&lt;font color=&quot;#000000&quot;&gt;id PK bigint&lt;/font&gt;&lt;/span&gt;&lt;/div&gt;&lt;div style=&quot;text-align: justify;&quot;&gt;&lt;span style=&quot;background-color: initial;&quot;&gt;&lt;font color=&quot;#000000&quot;&gt;name varchar(30)&lt;/font&gt;&lt;/span&gt;&lt;/div&gt;&lt;div style=&quot;text-align: justify;&quot;&gt;&lt;span style=&quot;background-color: initial;&quot;&gt;&lt;font color=&quot;#000000&quot;&gt;type varchar(30)&lt;/font&gt;&lt;/span&gt;&lt;/div&gt;" style="rounded=1;whiteSpace=wrap;html=1;align=center;fillColor=#fff2cc;strokeColor=#d6b656;" parent="FSxCDPhHm5OPK9uI3pFA-17" vertex="1"><mxGeometry width="210" height="120" as="geometry"/></mxCell><mxCell id="FSxCDPhHm5OPK9uI3pFA-7" value="&lt;font color=&quot;#000000&quot;&gt;Users&lt;/font&gt;" style="text;html=1;strokeColor=#b85450;fillColor=#f8cecc;align=center;verticalAlign=middle;whiteSpace=wrap;rounded=0;" parent="FSxCDPhHm5OPK9uI3pFA-17" vertex="1"><mxGeometry x="75.83333333333334" width="58.333333333333336" height="24" as="geometry"/></mxCell><mxCell id="FSxCDPhHm5OPK9uI3pFA-18" value="" style="group" parent="1" vertex="1" connectable="0"><mxGeometry x="490" y="320" width="210" height="120" as="geometry"/></mxCell><mxCell id="FSxCDPhHm5OPK9uI3pFA-8" value="&lt;font style=&quot;&quot; color=&quot;#000000&quot;&gt;id PK bigint&lt;br&gt;&amp;nbsp; &amp;nbsp; &amp;nbsp; &amp;nbsp; &amp;nbsp;name varchar(30)&lt;br&gt;ping_activity boolean&lt;/font&gt;" style="rounded=1;whiteSpace=wrap;html=1;align=center;fillColor=#fff2cc;strokeColor=#d6b656;" parent="FSxCDPhHm5OPK9uI3pFA-18" vertex="1"><mxGeometry width="210" height="120" as="geometry"/></mxCell><mxCell id="FSxCDPhHm5OPK9uI3pFA-9" value="&lt;font color=&quot;#000000&quot;&gt;Astrologers&lt;/font&gt;" style="text;html=1;strokeColor=#b85450;fillColor=#f8cecc;align=center;verticalAlign=middle;whiteSpace=wrap;rounded=0;" parent="FSxCDPhHm5OPK9uI3pFA-18" vertex="1"><mxGeometry x="46.66666666666667" width="81.66666666666667" height="24" as="geometry"/></mxCell><mxCell id="v5CGaWC85ugtJls0dgCc-17" value="" style="fontSize=12;html=1;endArrow=ERzeroToMany;startArrow=ERmandOne;rounded=0;exitX=0.408;exitY=0;exitDx=0;exitDy=0;entryX=0.5;entryY=1;entryDx=0;entryDy=0;exitPerimeter=0;" parent="1" source="FSxCDPhHm5OPK9uI3pFA-9" target="FSxCDPhHm5OPK9uI3pFA-10" edge="1"><mxGeometry width="100" height="100" relative="1" as="geometry"><mxPoint x="590" y="310" as="sourcePoint"/><mxPoint x="580" y="280" as="targetPoint"/></mxGeometry></mxCell><mxCell id="v5CGaWC85ugtJls0dgCc-20" value="" style="edgeStyle=entityRelationEdgeStyle;fontSize=12;html=1;endArrow=ERmandOne;startArrow=ERmandOne;rounded=0;entryX=0;entryY=0.75;entryDx=0;entryDy=0;" parent="1" target="FSxCDPhHm5OPK9uI3pFA-10" edge="1"><mxGeometry width="100" height="100" relative="1" as="geometry"><mxPoint x="410" y="340" as="sourcePoint"/><mxPoint x="470" y="200" as="targetPoint"/><Array as="points"><mxPoint x="530" y="255.5"/><mxPoint x="540" y="235.5"/></Array></mxGeometry></mxCell><mxCell id="v5CGaWC85ugtJls0dgCc-21" value="" style="fontSize=12;html=1;endArrow=ERzeroToMany;startArrow=ERmandOne;rounded=0;" parent="1" edge="1"><mxGeometry width="100" height="100" relative="1" as="geometry"><mxPoint x="313.5" y="260" as="sourcePoint"/><mxPoint x="313.5" y="310" as="targetPoint"/></mxGeometry></mxCell><mxCell id="v5CGaWC85ugtJls0dgCc-26" value="" style="fontSize=12;html=1;endArrow=ERzeroToMany;startArrow=ERmandOne;rounded=0;exitX=1;exitY=0.442;exitDx=0;exitDy=0;exitPerimeter=0;entryX=-0.017;entryY=0.404;entryDx=0;entryDy=0;entryPerimeter=0;" parent="1" source="FSxCDPhHm5OPK9uI3pFA-6" target="FSxCDPhHm5OPK9uI3pFA-10" edge="1"><mxGeometry width="100" height="100" relative="1" as="geometry"><mxPoint x="430" y="170" as="sourcePoint"/><mxPoint x="430" y="220" as="targetPoint"/></mxGeometry></mxCell><mxCell id="v5CGaWC85ugtJls0dgCc-27" value="" style="fontSize=12;html=1;endArrow=ERzeroToMany;startArrow=ERmandOne;rounded=0;exitX=0;exitY=0.5;exitDx=0;exitDy=0;entryX=0.993;entryY=0.46;entryDx=0;entryDy=0;entryPerimeter=0;" parent="1" source="FSxCDPhHm5OPK9uI3pFA-8" target="FSxCDPhHm5OPK9uI3pFA-1" edge="1"><mxGeometry width="100" height="100" relative="1" as="geometry"><mxPoint x="450" y="390" as="sourcePoint"/><mxPoint x="420" y="380" as="targetPoint"/></mxGeometry></mxCell></root></mxGraphModel></diagram></mxfile>